<?xml version="1.0" encoding="UTF-8" standalone="yes"?>
<svg version="1.1" id="Layer_1" xmlns="http://www.w3.org/2000/svg" xmlns:xlink="http://www.w3.org/1999/xlink" x="0px" y="0px" viewBox="0 0 230 48" style="enable-background:new 0 0 230 48;" xml:space="preserve">
  <style type="text/css">&#xD;
	.st0{fill:#F2F2F2;}&#xD;
	.st1{fill:#54473E;}&#xD;
	.st2{fill:#F6A859;}&#xD;
	.st3{fill:#FDFDFD;}&#xD;
</style>
  <g>
    <path class="st0" d="M83.9,42.3V0.3h8.4v34.9h8.6v7.1C100.9,42.3,83.9,42.3,83.9,42.3z"/>
    <path class="st0" d="M109.7,42.7c-2,0-3.5-0.5-4.5-1.3c-1-1-1.8-2.2-2.2-3.8s-0.5-3.5-0.5-5.5c0-2.2,0.2-4,0.7-5.3&#xD;&#xA;&#x9;&#x9;c0.5-1.3,1.2-2.5,2.2-3.5c1-0.8,2.5-1.7,4.3-2.3l5.3-1.8v-3.6c0-2-0.7-2.8-1.8-2.8c-1.2,0-1.7,0.8-1.7,2.3v2.2h-8.3&#xD;&#xA;&#x9;&#x9;c0-0.2,0-0.3,0-0.5s0-0.5,0-0.7c-0.2-3.6,0.7-6.1,2.3-7.6s4.3-2.2,7.9-2.2c2,0,3.6,0.3,5.1,1s2.6,1.7,3.6,3c0.8,1.3,1.3,3,1.3,5&#xD;&#xA;&#x9;&#x9;v27.3h-8.4V38c-0.5,1.5-1.2,2.6-2,3.5C112,42.3,111,42.7,109.7,42.7z M113.2,36c0.7,0,1.2-0.3,1.5-0.8c0.3-0.7,0.3-1.2,0.3-2v-9.9&#xD;&#xA;&#x9;&#x9;c-1.2,0.5-2.2,1.2-2.8,1.8c-0.7,0.7-1,1.8-1,3.1v4.6C111.2,35.1,111.9,36,113.2,36z"/>
    <path class="st0" d="M126.9,48.3V6.4h8.8v3.8c0.5-1.3,1.3-2.3,2.2-3.1c1-0.7,2.3-1.2,4-1.2c2.3,0,4,0.8,5,2.5s1.5,4,1.5,6.6v17.5&#xD;&#xA;&#x9;&#x9;c0,1.8-0.3,3.5-0.8,5s-1.3,2.6-2.5,3.5s-2.5,1.3-4.3,1.3c-2.3,0-4-1.3-5-4.1V48h-8.8V48.3z M137.7,36c0.8,0,1.5-0.5,1.7-1.3&#xD;&#xA;&#x9;&#x9;s0.3-2,0.3-3.3V17.3c0-1.3-0.2-2.5-0.3-3.3s-0.7-1.3-1.7-1.3s-1.5,0.5-1.7,1.3s-0.3,2-0.3,3.3v14.1c0,1.3,0.2,2.3,0.3,3.3&#xD;&#xA;&#x9;&#x9;C136.2,35.5,136.7,36,137.7,36z"/>
    <path class="st0" d="M158.4,42.7c-2,0-3.3-0.3-4.3-1.2s-1.7-2-2-3.3c-0.3-1.5-0.5-3.1-0.5-5V6.4h8.6v25.7c0,1.5,0.2,2.5,0.3,3&#xD;&#xA;&#x9;&#x9;s0.8,0.8,1.7,0.8s1.5-0.3,1.7-1.2c0.2-0.8,0.3-1.8,0.3-3.1V6.4h8.6v35.8h-8.6v-3.8c-0.5,1.3-1.2,2.5-2,3.1S160,42.7,158.4,42.7z"/>
    <path class="st0" d="M183.2,42.7c-2.3,0-3.8-0.5-4.6-1.5s-1.2-2.5-1.2-4.5V14.4h-2.5V7.9h2.5V0.3h8.3v7.6h2.5v6.5h-2.5v20.4&#xD;&#xA;&#x9;&#x9;c0,0.7,0.2,1,0.3,1.3s0.5,0.3,1.2,0.3c0.3,0,0.7,0,1-0.2V42c-0.2,0-0.8,0.2-1.8,0.3C185.2,42.7,184.2,42.7,183.2,42.7z"/>
    <path class="st0" d="M197.3,42.7c-2,0-3.5-0.5-4.5-1.3c-1-1-1.8-2.2-2.2-3.8c-0.3-1.7-0.5-3.5-0.5-5.5c0-2.2,0.2-4,0.7-5.3&#xD;&#xA;&#x9;&#x9;s1.2-2.5,2.2-3.5c1-0.8,2.5-1.7,4.3-2.3l5.3-1.8v-3.6c0-2-0.7-2.8-1.8-2.8s-1.7,0.8-1.7,2.3v2.2h-8.3c0-0.2,0-0.3,0-0.5&#xD;&#xA;&#x9;&#x9;s0-0.5,0-0.7c0-3.6,0.8-6.1,2.5-7.6s4.3-2.2,7.9-2.2c2,0,3.6,0.3,5.1,1s2.6,1.7,3.6,3c0.8,1.3,1.3,3,1.3,5v27.3h-8.4V38&#xD;&#xA;&#x9;&#x9;c-0.5,1.5-1.2,2.6-2,3.5S198.5,42.7,197.3,42.7z M200.6,36c0.7,0,1.2-0.3,1.5-0.8c0.3-0.7,0.3-1.2,0.3-2v-9.9&#xD;&#xA;&#x9;&#x9;c-1.2,0.5-2.2,1.2-2.8,1.8c-0.7,0.7-1,1.8-1,3.1v4.6C198.8,35.1,199.4,36,200.6,36z"/>
  </g>
  <path class="st1" d="M66.2,14.7c0.3,6-0.2,12.1,0,18c0,2-0.5,2.6-2.5,3c-0.7,0.2-1.5,0.2-2.2,0.3c-1.2,0.2-2.3,0.2-2.2,1.8&#xD;&#xA;&#x9;c0,0.7-0.5,0.8-1,0.7c-1.2-0.3-2.2,0.2-3.1,0.2s-1.5,0.5-1.7,1.3c-0.3,2.2-2.3,3.3-3.3,5.1c-0.2,0.2-0.3,0.3-0.7,0.3&#xD;&#xA;&#x9;c-1.7-0.2-3.3,0.5-5,0C43.8,45.3,43,45,42.5,46c-0.2,0.3-0.5,0.3-0.8,0.3c-0.8,0-1.2,0.3-1.2,1.2c0.2,1.5-1,1.2-1.7,1&#xD;&#xA;&#x9;s-1.3-0.3-2-0.7c-1.7-0.7-3.3-1.3-5.1-1.7c-1.2-0.2-1.3-1.5-1.3-2.5c0-0.7,0.2-1.5-1-1.3c-0.3,0-0.3-0.3-0.3-0.5&#xD;&#xA;&#x9;c-0.2-0.5,0.3-1.2-0.3-1.7c-1.2-0.7-2.3-1.2-3.8-0.8c-2.5,0.3-5.1,0.5-7.5-1.3c-0.2-0.2-0.3-0.2-0.5-0.2c-2.2,0.2-3.6-1.7-5.8-1.7&#xD;&#xA;&#x9;c-0.8,0-1.3-0.7-1.5-1.7c-0.3-2-0.2-3.8-0.2-5.6c0-5.3,0-10.8,0-16.1c0-1,0-1.5-1.3-1.5c-1.5,0-2-0.8-2-2.3c0.2-2.6,0.3-3,2.5-3.3&#xD;&#xA;&#x9;c1-0.2,1.7,0.2,2,1.2c0.2,0.3,0.2,1,0.8,0.8c0.7-0.2,0.8-0.5,1-1.2c0-1,0-2,0.3-3c0.3-0.8,0.7-1.5,1.7-1.7c4.1-1.2,8.3-1.8,12.7-1.7&#xD;&#xA;&#x9;c4.6,0.3,9.3,0.8,13.7,1.5c1,0.2,1-0.5,1-1c0-0.8,0-1.3,1-1.3s1.2,0.3,1.2,1.2c0,1.3,0.7,1.8,2,2c2,0.3,3.8,0.3,5.8,0.8&#xD;&#xA;&#x9;c0.3,0.2,0.7,0,0.8-0.3c0.2-1.2,1.2-0.8,1.8-0.8c0.8,0,0.5,0.8,0.5,1.2c0.3,1.5,1.8,1.8,2.8,2.3c1.7,0.8,3.6,0.7,5.3,1.3&#xD;&#xA;&#x9;c2,0.7,3,1.8,3,4C66.2,12.4,66.2,13.5,66.2,14.7z M32.1,6.9c0.2-0.3,0.2-0.8,0-1.2c0.2-0.5,0.2-1-0.3-1.2c-0.3-0.2-0.8-0.2-0.8,0.3&#xD;&#xA;&#x9;c-0.2,1,0.8,0.5,1.2,0.8c0,0.3,0,0.7,0,1c-0.5,0.2-1.2,0.3-0.8,1.2c-0.8,1.2-0.2,2.3-0.3,3.5c-0.2,0.8,0.2,1.3,1,1.2&#xD;&#xA;&#x9;c1-0.2,0.3-0.8,0.3-1.3s0-1.2,0-1.7c0.2-0.7,0.2-1.2,0-1.8C31.9,7.6,32.1,7.2,32.1,6.9z M42.3,40.4c0.8-1.2-0.3-2-0.2-3L42,37.2&#xD;&#xA;&#x9;c-0.3,0.7-1.5,0.2-1.7,0.8s0.3,1.2,1,1.3C41.8,39.5,42.3,39.5,42.3,40.4c-0.2,0-0.3,0-0.5,0c-0.3-0.2-0.7-0.3-0.7,0s0,1,0.3,1.2&#xD;&#xA;&#x9;c0.5,0.2,0.3-0.3,0.5-0.7C42,40.7,42.2,40.5,42.3,40.4z M40,3.8c-0.2,0-0.5,0-0.7,0c0-0.5-0.3-1-1-0.8c-0.8,0.2-1.7-0.2-2.6-0.2&#xD;&#xA;&#x9;c-1.2-0.2-2.2-0.2-3.3-0.3c-0.3,0-0.7,0-0.7,0.5c0,0.2,0,0.5,0.3,0.5c0.7,0,0.7,0.3,0.8,0.8c0.5,1,0.5,2,0.5,3c0,2.2,0,4.5,0,6.8&#xD;&#xA;&#x9;c0.5-0.8,0.5-1.5,0.5-2.2c0-2,0-3.8,0-5.8c0-0.3-0.2-1.2,0.5-1.2s1,0.5,1,1.2c0,2.8,0,5.5,0,8.3c0,0.7,0,1.2,0.8,1&#xD;&#xA;&#x9;c1.3-0.3,1.3,0.8,1.5,1.5c0.2,1-0.7,0.7-1.2,0.7c-0.8,0-1,0.5-0.8,1.2c0.2,0.8,0.8,1.2,1,2l0,0c-0.3,0.2-0.2,0.8-0.5,0.8&#xD;&#xA;&#x9;c0,0,0,0-0.2,0c0,0,0,0,0.2,0c0.8,0.7-1.8,2.3,0.8,2.5c1.5,2.6,1.7,1.5,1.7-0.5c0-0.2,0.3-0.3,0.3-0.7c-0.2-1.5,1.2,0,1.5-0.7&#xD;&#xA;&#x9;c0.2-0.2,0.5,0.5,0.5,1c0,0.3-0.2,0.7-0.3,0.8c-0.3,0.2-0.3-0.3-0.5-0.5c-0.2-0.2-0.5-0.3-0.7-0.2c-0.2,0.2-0.2,0.3,0,0.5&#xD;&#xA;&#x9;c1.5,1.5,1.5,3.5,2.3,5.3c1,2,1.3,2.3,3.6,2.5c3,0.2,6.1,0,9.1,0.5c1.2,0.2,2.5-0.2,3.5,0.3c1.7,1,3.5,0.8,5.3,1.2&#xD;&#xA;&#x9;c1,0.2,1.3-0.3,1.5-1.3c0.3-3.3,0-6.6,0.2-9.9c0-0.7-0.3-0.8-0.8-1c-0.3,0-0.5-0.2-0.5-0.5s0.2-0.7,0.5-0.5c1,0,0.8-0.7,0.8-1.2&#xD;&#xA;&#x9;c0-1,0-2,0-3c0.2-2.2-0.2-4.1-0.5-6.3c-0.2-0.7-0.5-1-1-1.2c-2.2-0.7-4.5-1.2-6.8-1.2c-1.2-0.8-2.5-0.8-3.6-1.2&#xD;&#xA;&#x9;c0-0.2-0.2-0.5-0.5-0.5c-2.8-0.5-5.6-1.2-8.3-1.8c-0.5-0.2-0.7,0.2-0.7,0.7c-1,0.2-2-0.2-2.8-0.5C40.7,3.3,40.5,3.3,40,3.8z&#xD;&#xA;&#x9; M12.7,9.2c-0.2,0.2-0.7-0.3-1,0.2c-0.2,0.3-1,0.2-0.8,0.5c0.2,0.5,0.7,0.2,1.2,0.2c1.2-0.2,2.5-0.3,3.6-0.7&#xD;&#xA;&#x9;c0.5-0.2,1.2-0.2,1.2,0.7c0,0.3,0,1,0.5,0.8c0.5,0,1-0.3,1-0.8c0-0.3,0.2-0.7,0.5-0.8c0.8-0.3,0.3-1,0.2-1.3c-0.2-0.5-0.7-0.2-1,0&#xD;&#xA;&#x9;C16.3,8.2,14.7,9.2,12.7,9.2z M30.7,23.6c0,0.8,0,1.7,0,2.5c0,0.3,0,0.8,0.5,0.8c0.7,0,0.5-0.5,0.5-0.8c0.2-1.7,0-3.1,0.2-4.8&#xD;&#xA;&#x9;c0.2-1-0.7-1.7-1.7-1.3c-0.2,0-0.7,0.2-0.3,0.5C31.2,21.3,30.4,22.6,30.7,23.6z M34.4,22.8c0-1,0-2-0.2-2.8c0-0.7-0.7-0.8-1.2-0.8&#xD;&#xA;&#x9;c-0.3,0-0.8-0.2-0.8,0.3s0.5,0.7,0.8,0.8c0.7,0.3,0.7,0.8,0.7,1.3c0.2,1.8,0,3.8-0.2,5.6c0,0.3-0.2,0.8,0.2,1c0.3,0,0.3-0.7,0.3-1&#xD;&#xA;&#x9;C34.2,25.6,34.6,24.3,34.4,22.8z M27.1,2.9c0-0.3-0.3-0.3-0.5-0.3c-0.7,0-1.3,0-1.8,0s-1-0.2-1.2,0.5c-0.2,0.5-0.2,1,0.2,1.3&#xD;&#xA;&#x9;c0.3,0.5,0.8,0,1.3,0C25.8,4.1,26.8,3.9,27.1,2.9z M19.7,4.9c0-2-1.2-0.7-1.7-0.8c-0.5,0-1.2-0.2-1.2,0.7c0,0.7,0,1.5,0.3,1.8&#xD;&#xA;&#x9;c0.7,0.5,0.8-0.5,1.2-0.8c0.2-0.2,0.5-0.2,0.7-0.2C19.7,5.6,19.7,5.3,19.7,4.9z M39,29.3c-0.5-0.7,0-1.8-1.3-2c-0.2,0-0.7,0-0.7,0.3&#xD;&#xA;&#x9;c0.3,0.8,0.2,1.8,1,2.5C38.5,30.3,38.7,29.6,39,29.3z M40.3,29.1c-0.2,0.2-0.7,0.3-0.8,0.7c-0.2,0.2,0.2,0.3,0.3,0.3&#xD;&#xA;&#x9;c0.3,0,0.8,0,0.8-0.5C40.7,29.3,40.7,29.3,40.3,29.1z M16.2,7.9c-0.7,0.3-1.5-0.3-2,0.2c0,0-0.2,0.2-0.2,0.3c0.7-0.2,1.3-0.2,2-0.3&#xD;&#xA;&#x9;C16,8.1,16,8.1,16.2,7.9z M38.9,33.7c-0.2-0.2,0-0.5-0.3-0.5s-0.3,0.3-0.3,0.7c0,0.2,0,0.5,0.3,0.5C38.7,34.4,38.7,34.1,38.9,33.7z&#xD;&#xA;&#x9; M38,30.9c-0.3,0-0.3,0.2-0.2,0.3s0.2,0.7,0.5,0.7c0.3,0,0.3-0.2,0.3-0.5C38.4,31.1,38.2,30.9,38,30.9z"/>
  <path class="st2" d="M36.2,21.5c0.5-0.2,0.3-0.7,0.5-0.8c-0.2,0.5,0.2,1,0.5,1.5c0.3,0.5,0.7,0,0.8-0.2c0.2-0.2,0.3-0.5,0.2-0.5&#xD;&#xA;&#x9;c-0.8,0.3-0.8-0.8-1.5-0.8c-0.2-0.7-1-1.2-1-2c0-0.7,0-1.2,0.8-1.2c0.5,0,1.3,0.2,1.2-0.7c-0.2-0.7-0.2-1.7-1.5-1.5&#xD;&#xA;&#x9;c-0.7,0.2-0.8-0.2-0.8-1c0.2-2.8,0-5.5,0-8.3c0-0.7-0.2-1.2-1-1.2s-0.5,0.7-0.5,1.2c0,2,0,3.8,0,5.8c0,0.7,0,1.3-0.5,2.2&#xD;&#xA;&#x9;c0-2.5,0-4.6,0-6.8c0-1,0-2-0.5-3c-0.2-0.5-0.2-0.8-0.8-0.8c-0.3,0-0.3-0.3-0.3-0.5c0-0.5,0.3-0.5,0.7-0.5c1.2,0.2,2.2,0.2,3.3,0.3&#xD;&#xA;&#x9;c0.8,0,1.7,0.3,2.6,0.2c0.7,0,0.8,0.3,1,0.8c-0.7,0-1.3,0-2,0c-0.3,0-0.8-0.2-0.8,0.2c0,0.5,0.5,0.5,0.8,0.5c3.5,0.7,7.1,1,10.6,1.7&#xD;&#xA;&#x9;c3,0.5,6,1.3,8.9,1.2c2.3,0,4.5,0.5,6.8,1.2c0.5,0.2,0.8,0.5,1,1.2c0.3,2,0.7,4.1,0.5,6.3c-0.2,1,0,2,0,3c0,0.5,0.2,1.2-0.8,1.2&#xD;&#xA;&#x9;c-0.3,0-0.5,0.2-0.5,0.5s0.3,0.5,0.5,0.5c0.5,0.2,0.8,0.3,0.8,1c-0.2,3.3,0.2,6.6-0.2,9.9c-0.2,1-0.5,1.5-1.5,1.3&#xD;&#xA;&#x9;c-1.8-0.3-3.6-0.2-5.3-1.2c-1-0.7-2.3-0.2-3.5-0.3c-3-0.5-6.1-0.3-9.1-0.5c-2.2-0.2-2.6-0.5-3.6-2.5c-0.8-1.8-0.8-3.8-2.3-5.3&#xD;&#xA;&#x9;c-0.2-0.2-0.2-0.3,0-0.5c0.3-0.3,0.5,0,0.7,0.2c0.2,0.2,0.2,0.7,0.5,0.5c0.2,0,0.2-0.5,0.3-0.8c0-0.5-0.3-1.2-0.5-1&#xD;&#xA;&#x9;c-0.5,0.7-1.8-0.8-1.5,0.7c0,0.3-0.3,0.5-0.3,0.7c0,2-0.2,3.1-1.7,0.5C34.4,23.8,37.2,22.1,36.2,21.5L36.2,21.5z M37.9,15.2&#xD;&#xA;&#x9;c0.2,0.2,0.2,0.2,0.3,0.3c0,0.3,0,0.5,0.3,0.7l0.2-0.2c0-0.3-0.2-0.5-0.3-0.7C38.2,15.2,38.2,15.2,37.9,15.2&#xD;&#xA;&#x9;c0.2-0.3-0.2-0.7-0.3-0.5C37.4,14.9,37.7,15,37.9,15.2z M63.5,19c-0.7,0.3-1.3,0.8-2.2,0.7c-7.1-1.2-14.2-2.2-21.4-3.1&#xD;&#xA;&#x9;c-0.3,0-1-0.3-1.2,0.2c-0.2,0.7,0.7,0.7,1,0.7c3.8,0.8,7.8,1.2,11.6,2c3.1,0.7,6.5,0.8,9.8,1.3c1.5,0.2,2-0.3,2.5-1.5&#xD;&#xA;&#x9;c0.2-0.2,0.3-0.5,0-0.5C63.7,18.5,63.7,18.8,63.5,19z M59.4,23.5c1,0,1.2-0.7,1.2-1.3c0.2-0.8-0.5-0.8-1-1c-3.5-0.5-7-1-10.4-1.5&#xD;&#xA;&#x9;c-0.8-0.2-0.8,0.5-0.8,1c-0.2,0.5,0,1,0.7,1.2C52.4,22.5,55.9,23,59.4,23.5z M52.1,12L52.1,12c0,0.5,0,1.2,0,1.7&#xD;&#xA;&#x9;c0,0.3,0,0.7,0.5,0.7s0.3-0.3,0.3-0.7s-0.3-0.8,0.2-0.8c0.3,0,0.5,0.3,0.7,0.7c0.8,1.2,2.2,2.2,3,1.3c1.2-1,1.5-0.5,2.3,0.2&#xD;&#xA;&#x9;c0.2,0.2,0.3,0.2,0.5,0.2c0-0.2,0.2-0.3,0.2-0.5c-0.3-1.2-0.5-2.2-0.8-3.3c0-0.3-0.2-0.5-0.5-0.7c-0.3,0-0.5,0.3-0.7,0.5&#xD;&#xA;&#x9;c-0.3,0.8-0.8,1.7-1.2,2.5c-0.2,0.2-0.2,0.7-0.5,0.5c-0.5-0.5-1.2-0.8-1.5-1.5c-0.3-0.5,0.2-1.2,0.7-1.5c0.3-0.2,1-0.5,0.5-1&#xD;&#xA;&#x9;c-0.3-0.3-0.8-0.2-1.2,0.2c-0.2,0.2-0.3,0.3-0.5,0.5c-0.5,0.5-0.8,0.7-0.7-0.3c0-0.5-0.2-0.8-0.7-0.8s-0.5,0.5-0.5,0.8&#xD;&#xA;&#x9;C52.1,11,52.1,11.5,52.1,12z M48.1,25.6c0-2.5-0.5-3-2.8-2.8c-0.2,0-0.5,0-0.5,0.2c-0.2,0.2,0.2,0.3,0.3,0.3c0.3,0,0.7,0.2,0.8,0.2&#xD;&#xA;&#x9;c-0.3,0.2-0.7,0.3-1,0.3c-0.2,0-0.5-0.2-0.5,0.2c-0.2,1.2-0.5,2.3,0.3,3.1c0.7,0.7,1.7,0.7,2.5,0.5C48.6,27.3,47.8,26.1,48.1,25.6z&#xD;&#xA;&#x9; M52.8,25.8c0,2.5,0,2.6,2.6,2.6c2,0,1-1.5,1.2-2.3c0.2-1.7-0.3-2-2.2-2.2C52.6,24,52.6,24.8,52.8,25.8z M41.5,9.9&#xD;&#xA;&#x9;c0.3-0.2,1.3,0.5,1.3-0.5s-1-0.5-1.5-0.5c-0.2,0-0.3,0-0.5,0c-0.8,0-1.7,0-1.7,1.2c0,1,0,2,1.3,1.7c0.3,0,0.7,0.2,0.7,0.7&#xD;&#xA;&#x9;c0,0.3-0.5,0.3-0.7,0.3c-0.3,0-0.7,0-0.8,0s-0.3,0.2-0.3,0.3s0.2,0.5,0.2,0.5c0.8,0.3,1.8,0.5,2.6,0.2c0.8-0.3,0.2-1.2,0.3-1.8&#xD;&#xA;&#x9;c0-1-0.8-0.8-1.5-1c-0.3,0-0.8,0.2-0.8-0.3C40,9.7,40.5,9.9,41,9.9C41,9.9,41.2,9.9,41.5,9.9z M61.7,25.3c-1.7-0.5-1.5,0.8-1.5,1.8&#xD;&#xA;&#x9;c0,1.2-0.2,2.3,1.7,2.2c1.3-0.2,1.7-0.7,1.7-2.6C63.5,25.3,62.9,25.1,61.7,25.3z M47.3,11.7c0,0.5,0,0.8,0,1.3c0,0.3-0.2,1,0.5,1&#xD;&#xA;&#x9;s0.5-0.5,0.5-0.8c0-0.5,0.3-0.7,0.8-0.5c0.5,0,1,0,1.2,0.7c0,0.3-0.2,1,0.3,1c0.5,0,0.2-0.7,0.3-1.2c0.3-0.8,0.3-1.8,0-2.6&#xD;&#xA;&#x9;c-0.2-0.3-0.2-0.7-0.5-0.7C48.5,8.9,47.3,9.7,47.3,11.7z M62.4,15.5c0.5,0,0.8,0,1-0.5s-0.3-0.7-0.7-0.7c-0.7-0.2-1.5-0.2-1.3-1.3&#xD;&#xA;&#x9;c0.2-1.2,0.8-0.7,1.5-0.7c0.5,0,0.8-0.2,0.7-0.8c-0.2-0.5-2.6-0.8-2.8-0.3c-0.5,1-0.5,2.2-0.2,3.3C60.7,15.5,61.7,15.4,62.4,15.5z&#xD;&#xA;&#x9; M44.5,8.9c0,0-0.3,0-0.7,0c-0.3,0-0.5,0-0.5,0.3c0,0.2,0,0.5,0.2,0.5c1.3,0.3,0.8,1.3,1,2.2c0.2,0.5-0.3,1.7,0.3,1.7&#xD;&#xA;&#x9;c0.8,0,0.3-1.2,0.5-1.7c0.2-0.7-0.5-1.8,1-1.8c0.5,0,0.3-0.8-0.2-1C45.8,9.1,45.5,9.1,44.5,8.9z"/>
  <path class="st3" d="M56.9,7.2c-3,0.2-6-0.7-8.9-1.2c-3.5-0.7-7.1-1-10.6-1.7c-0.3,0-1,0-0.8-0.5c0-0.3,0.5-0.2,0.8-0.2&#xD;&#xA;&#x9;c0.7,0,1.3,0,2,0c0.2,0,0.5,0,0.7,0c0.3,0.3,0.7,0.3,1,0.2c0.8,0.3,1.8,0.7,2.8,0.5c1.2,0.7,2.5,0.5,3.6,0.7c2,0.3,3.8,1,6,1&#xD;&#xA;&#x9;C54.6,6.4,55.9,6.4,56.9,7.2z"/>
  <path class="st2" d="M12.7,9.2c2,0,3.5-1,5.3-1.5c0.3,0,0.8-0.5,1,0c0.2,0.5,0.7,1.2-0.2,1.5c-0.2,0.2-0.3,0.5-0.3,0.8&#xD;&#xA;&#x9;c-0.2,0.5-0.7,0.8-1.2,1c-0.5,0-0.3-0.5-0.5-0.8c0-0.8-0.5-0.8-1.2-0.8c-1.2,0.3-2.5,0.5-3.6,0.7c-0.3,0.2-1,0.3-1.2-0.2&#xD;&#xA;&#x9;c-0.2-0.3,0.7-0.2,0.8-0.5C12,8.9,12.5,9.4,12.7,9.2z"/>
  <path class="st2" d="M30.7,23.6c-0.2-1,0.5-2.3-0.7-3.3c-0.3-0.2,0-0.3,0.3-0.5c1-0.3,1.8,0.3,1.7,1.3c-0.2,1.7-0.2,3.1-0.2,4.8&#xD;&#xA;&#x9;c0,0.3,0,0.8-0.5,0.8s-0.5-0.5-0.5-0.8C30.7,25.3,30.7,24.6,30.7,23.6z"/>
  <path class="st2" d="M34.4,22.8c0,1.5-0.2,2.8-0.3,4.3c0,0.3,0,1-0.3,1s-0.2-0.7-0.2-1c0.2-1.8,0.3-3.8,0.2-5.6c0-0.5,0-1-0.7-1.3&#xD;&#xA;&#x9;c-0.3-0.2-0.8-0.3-0.8-0.8s0.5-0.2,0.8-0.3c0.5,0,1.2,0,1.2,0.8C34.4,20.8,34.4,21.8,34.4,22.8z"/>
  <path class="st2" d="M53.3,6.1c-2,0-4-0.7-6-1c-1.2-0.2-2.5,0-3.6-0.7c0-0.5,0.2-0.7,0.7-0.7c2.8,0.7,5.6,1.2,8.3,1.8&#xD;&#xA;&#x9;C53.1,5.6,53.3,5.7,53.3,6.1z"/>
  <path class="st3" d="M27.1,2.9c-0.3,0.8-1.3,1.2-2.2,1.3c-0.5,0.2-1,0.5-1.3,0c-0.3-0.3-0.3-0.8-0.2-1.3c0.2-0.7,0.7-0.5,1.2-0.5&#xD;&#xA;&#x9;c0.7,0,1.3,0,1.8,0C26.8,2.6,27.1,2.6,27.1,2.9z"/>
  <path class="st3" d="M19.7,4.9c0,0.3,0,0.7-0.8,0.7c-0.2,0-0.5,0-0.7,0.2c-0.2,0.3-0.3,1.3-1,0.8c-0.3-0.3-0.3-1.2-0.3-1.8&#xD;&#xA;&#x9;c0-0.8,0.7-0.8,1.2-0.7S19.7,2.8,19.7,4.9z"/>
  <path class="st2" d="M42.3,40.4c0-0.8-0.5-0.8-1.2-1s-1.2-0.7-1-1.3s1.3-0.3,1.7-0.8l0.2,0.2C42,38.4,43,39.2,42.3,40.4L42.3,40.4z"/>
  <path class="st2" d="M31.9,7.9c0.2,0.7,0.2,1.2,0,1.8c-0.7,0-0.8,0.3-0.8,0.8c0,0.5,0.2,0.8,0.8,0.8c0,0.5,0.5,1.3-0.3,1.3&#xD;&#xA;&#x9;c-0.7,0-1.2-0.5-1-1.2c0.3-1.2-0.5-2.5,0.3-3.5C31.4,7.9,31.7,7.9,31.9,7.9z"/>
  <path class="st2" d="M39,29.3c-0.3,0.3-0.5,1-0.8,0.7c-0.8-0.5-0.7-1.7-1-2.5c-0.2-0.3,0.3-0.3,0.7-0.3C39,27.4,38.5,28.6,39,29.3z"/>
  <path class="st3" d="M31.9,5.9c-0.3-0.3-1.3,0.2-1.2-0.8c0.2-0.5,0.5-0.5,0.8-0.3C32.1,4.9,32.2,5.4,31.9,5.9&#xD;&#xA;&#x9;C32.1,5.7,31.9,5.7,31.9,5.9z"/>
  <path class="st3" d="M32.1,11.4c-0.7,0-0.8-0.3-0.8-0.8c0-0.7,0.2-0.8,0.8-0.8C32.1,10.2,32.1,10.7,32.1,11.4z"/>
  <path class="st2" d="M42.3,40.4c-0.2,0.2-0.3,0.3-0.3,0.5c-0.2,0.2,0,0.8-0.5,0.7C41,41.3,41,40.7,41,40.4c0-0.5,0.5-0.2,0.7,0&#xD;&#xA;&#x9;C42,40.4,42.2,40.4,42.3,40.4L42.3,40.4z"/>
  <path class="st2" d="M40.3,29.1c0.3,0,0.3,0.2,0.3,0.3c0,0.5-0.5,0.5-0.8,0.5c-0.2,0-0.5-0.2-0.3-0.3C39.7,29.6,40,29.4,40.3,29.1z"/>
  <path class="st2" d="M16.2,7.9L16,8.1c-0.7,0.2-1.3,0.2-2,0.3c0-0.2,0-0.2,0.2-0.3C14.7,7.6,15.5,8.2,16.2,7.9z"/>
  <path class="st2" d="M38.9,33.7c0,0.3-0.2,0.7-0.5,0.7c-0.3,0-0.3-0.3-0.3-0.5c0-0.3,0-0.7,0.3-0.7C38.9,33.2,38.7,33.6,38.9,33.7z"/>
  <path class="st3" d="M31.9,7.9c-0.3,0-0.7,0-1,0c-0.3-0.8,0.2-1,0.8-1.2c0,0.2,0,0.2,0.2,0.2C32.1,7.2,31.9,7.6,31.9,7.9z"/>
  <path class="st2" d="M38,30.9c0.3,0,0.5,0.3,0.5,0.5c0.2,0.3,0,0.5-0.3,0.5s-0.3-0.3-0.5-0.7C37.7,31.1,37.7,30.9,38,30.9z"/>
  <path class="st2" d="M41,3.9c-0.3,0-0.7,0.2-1-0.2C40.5,3.3,40.7,3.3,41,3.9z"/>
  <path class="st2" d="M32.1,6.9c-0.2,0-0.2,0-0.2-0.2c0-0.3,0-0.7,0-1c0,0,0.2-0.2,0.2,0C32.1,6.2,32.2,6.6,32.1,6.9z"/>
  <path class="st2" d="M36.2,21.5L36.2,21.5L36.2,21.5L36.2,21.5z"/>
  <path class="st1" d="M59.4,23.5c-3.5-0.5-6.8-1-10.3-1.5c-0.7-0.2-0.8-0.5-0.7-1.2c0.2-0.5,0.2-1.2,0.8-1c3.5,0.5,7,1,10.4,1.5&#xD;&#xA;&#x9;c0.5,0,1.2,0.2,1,1C60.4,22.8,60.4,23.5,59.4,23.5z"/>
  <path class="st1" d="M63.9,19.3c-0.5,1.2-1.2,1.7-2.5,1.5c-3.3-0.5-6.6-0.7-9.8-1.3c-3.8-0.8-7.8-1.2-11.6-2c-0.5-0.2-1.2-0.2-1-0.7&#xD;&#xA;&#x9;c0.2-0.5,0.8-0.2,1.2-0.2c7.1,1,14.2,2,21.4,3.1c1,0.2,1.5-0.3,2.2-0.7C63.7,19.2,63.9,19.2,63.9,19.3z"/>
  <path class="st1" d="M52.1,12c0-0.5,0-1,0-1.5c0-0.3-0.2-0.8,0.5-0.8s0.7,0.3,0.7,0.8c0,1,0.3,0.8,0.7,0.3c0.2-0.2,0.3-0.3,0.5-0.5&#xD;&#xA;&#x9;c0.3-0.3,0.8-0.7,1.2-0.2c0.5,0.5-0.2,0.7-0.5,1c-0.5,0.5-1,1-0.7,1.5c0.3,0.7,1,1.2,1.5,1.5c0.3,0.3,0.3-0.2,0.5-0.5&#xD;&#xA;&#x9;c0.3-0.8,0.8-1.7,1.2-2.5c0.2-0.3,0.2-0.5,0.7-0.5c0.3,0,0.5,0.3,0.5,0.7c0.3,1.2,0.5,2.2,0.8,3.3c0,0.2,0,0.3-0.2,0.5&#xD;&#xA;&#x9;c-0.2,0-0.3,0-0.5-0.2c-0.7-0.5-1.2-1.2-2.3-0.2c-0.8,0.8-2.2-0.2-2.8-1.2c-0.2-0.3-0.3-0.8-0.7-0.7c-0.5,0.2-0.2,0.5-0.2,0.8&#xD;&#xA;&#x9;c0,0.3,0,0.7-0.3,0.7c-0.5,0-0.5-0.3-0.5-0.7C52.1,13.2,52.1,12.5,52.1,12L52.1,12z"/>
  <path class="st1" d="M48.1,25.6c-0.3,0.7,0.5,1.7-0.7,2c-0.8,0.3-2,0.2-2.5-0.5c-0.8-0.8-0.5-2.2-0.3-3.1c0-0.3,0.3-0.2,0.5-0.2&#xD;&#xA;&#x9;c0.3,0,0.7-0.3,1-0.3c-0.3,0-0.7-0.2-0.8-0.2S44.8,23.1,45,23c0-0.2,0.3-0.2,0.5-0.2C47.6,22.6,48.1,23.1,48.1,25.6z"/>
  <path class="st1" d="M52.8,25.8c-0.2-1,0-2,1.7-1.8c1.8,0.2,2.3,0.5,2.2,2.2c-0.2,0.8,0.8,2.3-1.2,2.3&#xD;&#xA;&#x9;C52.8,28.4,52.8,28.4,52.8,25.8z"/>
  <path class="st1" d="M41.5,9.9c-0.3,0-0.5,0-0.5,0c-0.3,0-0.8-0.2-0.8,0.5c0,0.5,0.5,0.3,0.8,0.3c0.7,0,1.5-0.2,1.5,1&#xD;&#xA;&#x9;c0,0.7,0.7,1.5-0.3,1.8c-0.8,0.3-1.8,0.2-2.6-0.2c-0.2,0-0.2-0.3-0.2-0.5c0-0.2,0.2-0.3,0.3-0.3c0.3,0,0.5,0,0.8,0s0.7,0.2,0.7-0.3&#xD;&#xA;&#x9;c0-0.3-0.3-0.7-0.7-0.7c-1.5,0.3-1.3-0.7-1.3-1.7c0-1.2,0.8-1.2,1.7-1.2c0.2,0,0.3,0,0.5,0c0.5,0.2,1.5-0.3,1.5,0.5&#xD;&#xA;&#x9;C42.8,10.4,41.8,9.7,41.5,9.9z"/>
  <path class="st1" d="M61.7,25.3c1.2-0.2,1.8,0,1.8,1.3c-0.2,2-0.5,2.5-1.7,2.6c-1.8,0.2-1.7-1.2-1.7-2.2&#xD;&#xA;&#x9;C60.2,26.1,60,24.8,61.7,25.3z"/>
  <path class="st1" d="M47.3,11.7c0-1.8,1.2-2.6,3-2c0.3,0.2,0.5,0.5,0.5,0.7c0.3,0.8,0.3,1.8,0,2.6c-0.2,0.3,0.2,1-0.3,1.2&#xD;&#xA;&#x9;c-0.5,0-0.2-0.7-0.3-1c-0.2-0.7-0.7-0.5-1.2-0.7c-0.5,0-0.8,0-0.8,0.5c0,0.3,0.2,0.8-0.5,0.8s-0.5-0.7-0.5-1&#xD;&#xA;&#x9;C47.3,12.5,47.3,12,47.3,11.7z M49.1,11.5c0.2-0.2,0.7,0.5,0.7-0.2c0-0.7-0.5-0.7-1-0.8c-0.3-0.2-0.7,0-0.7,0.3&#xD;&#xA;&#x9;C48.3,11.4,48.6,11.7,49.1,11.5z"/>
  <path class="st1" d="M62.4,15.5c-0.7-0.2-1.7,0-1.8-1c-0.3-1-0.3-2.2,0.2-3.3c0.2-0.5,2.6-0.2,2.8,0.3c0.2,0.5-0.2,0.8-0.7,0.8&#xD;&#xA;&#x9;c-0.5,0-1.3-0.3-1.5,0.7c-0.2,1.2,0.7,1.2,1.3,1.3c0.3,0.2,0.8,0.2,0.7,0.7C63.4,15.7,62.9,15.5,62.4,15.5z"/>
  <path class="st1" d="M44.5,8.9c0.8,0,1.3,0,1.7,0.2c0.5,0.2,0.5,0.8,0.2,1c-1.5,0.2-0.8,1.2-1,1.8c-0.2,0.7,0.3,1.7-0.5,1.7&#xD;&#xA;&#x9;c-0.7,0-0.3-1-0.3-1.7c-0.2-0.8,0.3-2-1-2.2c-0.2,0-0.2-0.3-0.2-0.5c0-0.3,0.3-0.3,0.5-0.3C44.3,8.9,44.7,8.9,44.5,8.9z"/>
  <path class="st1" d="M36.9,20.6c0.7,0,0.5,1.2,1.5,0.8c0.2-0.2,0,0.3-0.2,0.5c-0.3,0.3-0.5,0.7-0.8,0.2&#xD;&#xA;&#x9;C36.9,21.6,36.7,21.1,36.9,20.6C36.7,20.6,36.9,20.6,36.9,20.6z"/>
  <path class="st1" d="M38.4,15.4c0.3,0.2,0.5,0.3,0.3,0.7l-0.2,0.2C38.2,16,38.2,15.7,38.4,15.4C38.2,15.4,38.2,15.4,38.4,15.4z"/>
  <path class="st1" d="M37.9,15.2c-0.2-0.2-0.5-0.3-0.2-0.7C37.9,14.5,38,14.7,37.9,15.2C38,15,37.9,15.2,37.9,15.2z"/>
  <path class="st1" d="M63.5,19c0-0.2,0.2-0.5,0.3-0.3c0.3,0.2,0.2,0.3,0,0.5C63.9,19.2,63.7,19.2,63.5,19z"/>
  <path class="st1" d="M38,15c0.2,0.2,0.2,0.2,0.3,0.3l-0.2,0.2C38,15.4,38,15.4,38,15C37.9,15.2,38,15,38,15z"/>
  <path class="st2" d="M49.1,11.5c-0.5,0.2-0.8-0.2-0.8-0.7c0-0.3,0.3-0.5,0.7-0.3c0.3,0.2,1,0,1,0.8C49.8,12,49.3,11.4,49.1,11.5z"/>
</svg>